<svg width="800" height="800" viewBox="0 0 800 800" fill="none" xmlns="http://www.w3.org/2000/svg">
<path d="M700 533.333V666.667C700 685.077 685.077 700 666.667 700H133.333C114.924 700 100 685.077 100 666.667V600M700 533.333V133.333C700 114.924 685.077 100 666.667 100H133.333C114.924 100 100 114.924 100 133.333V600M700 533.333L516.097 410.73C506.143 404.093 493.397 403.3 482.697 408.65L100 600" stroke="white" stroke-width="33.3333" stroke-linejoin="round"/>
<path d="M266.667 366.667C303.486 366.667 333.333 336.819 333.333 300C333.333 263.181 303.486 233.333 266.667 233.333C229.848 233.333 200 263.181 200 300C200 336.819 229.848 366.667 266.667 366.667Z" stroke="white" stroke-width="33.3333" stroke-linejoin="round"/>
</svg>
